<svg xmlns="http://www.w3.org/2000/svg" xmlns:xlink="http://www.w3.org/1999/xlink" width="1366" zoomAndPan="magnify" viewBox="0 0 1024.5 576" height="768" preserveAspectRatio="xMidYMid meet" version="1.0"><defs><g/></defs><g fill="#232b2b" fill-opacity="1"><g transform="translate(0.0428751, 364.294657)"><g><path d="M 120.34375 -140.859375 L 147.875 -64.796875 C 149.039062 -61.679688 150.125 -58.515625 151.125 -55.296875 C 152.132812 -52.085938 153.0625 -49.023438 153.90625 -46.109375 C 154.75 -43.191406 155.492188 -40.5 156.140625 -38.03125 C 156.785156 -35.570312 157.269531 -33.46875 157.59375 -31.71875 C 158.113281 -34.113281 158.664062 -36.769531 159.25 -39.6875 C 159.832031 -42.601562 160.460938 -45.664062 161.140625 -48.875 C 161.828125 -52.09375 162.539062 -55.382812 163.28125 -58.75 C 164.03125 -62.125 164.796875 -65.398438 165.578125 -68.578125 L 176.078125 -111.578125 C 176.273438 -112.359375 176.484375 -113.265625 176.703125 -114.296875 C 176.929688 -115.335938 177.144531 -116.359375 177.34375 -117.359375 C 177.539062 -118.367188 177.6875 -119.3125 177.78125 -120.1875 C 177.875 -121.0625 177.921875 -121.757812 177.921875 -122.28125 C 177.921875 -125.71875 176.898438 -128.148438 174.859375 -129.578125 C 172.816406 -131.003906 169.59375 -131.71875 165.1875 -131.71875 L 160.609375 -131.71875 L 160.609375 -142.234375 L 212.5625 -142.234375 L 212.5625 -131.71875 L 208.765625 -131.71875 C 206.816406 -131.71875 205.097656 -131.519531 203.609375 -131.125 C 202.117188 -130.738281 200.789062 -129.976562 199.625 -128.84375 C 198.457031 -127.707031 197.398438 -126.132812 196.453125 -124.125 C 195.515625 -122.113281 194.59375 -119.457031 193.6875 -116.15625 L 162.75 0 L 140.09375 0 L 106.625 -93.484375 L 77.921875 0 L 53.21875 0 L 16.734375 -121.109375 C 16.148438 -123.191406 15.4375 -124.910156 14.59375 -126.265625 C 13.75 -127.628906 12.757812 -128.71875 11.625 -129.53125 C 10.488281 -130.34375 9.191406 -130.910156 7.734375 -131.234375 C 6.273438 -131.554688 4.570312 -131.71875 2.625 -131.71875 L 0 -131.71875 L 0 -142.234375 L 66.546875 -142.234375 L 66.546875 -131.71875 L 61.96875 -131.71875 C 57.945312 -131.71875 54.945312 -130.9375 52.96875 -129.375 C 50.988281 -127.820312 50 -125.394531 50 -122.09375 C 50 -120.988281 50.207031 -119.378906 50.625 -117.265625 C 51.050781 -115.160156 51.523438 -113.203125 52.046875 -111.390625 L 65.375 -65.375 C 66.082031 -62.84375 66.84375 -60.101562 67.65625 -57.15625 C 68.46875 -54.207031 69.226562 -51.222656 69.9375 -48.203125 C 70.65625 -45.191406 71.304688 -42.289062 71.890625 -39.5 C 72.472656 -36.707031 72.894531 -34.242188 73.15625 -32.109375 C 74.0625 -36.390625 75.050781 -40.394531 76.125 -44.125 C 77.195312 -47.851562 78.316406 -51.660156 79.484375 -55.546875 L 105.75 -140.859375 Z M 120.34375 -140.859375 "/></g></g></g><g fill="#232b2b" fill-opacity="1"><g transform="translate(212.588579, 364.294657)"><g><path d="M 112.75 -53.796875 C 112.75 -35.054688 108.351562 -21.078125 99.5625 -11.859375 C 90.78125 -2.648438 77.859375 1.953125 60.796875 1.953125 C 52.816406 1.953125 45.648438 0.800781 39.296875 -1.5 C 32.941406 -3.8125 27.539062 -7.269531 23.09375 -11.875 C 18.65625 -16.476562 15.253906 -22.28125 12.890625 -29.28125 C 10.523438 -36.28125 9.34375 -44.453125 9.34375 -53.796875 C 9.34375 -72.535156 13.734375 -86.476562 22.515625 -95.625 C 31.304688 -104.769531 44.265625 -109.34375 61.390625 -109.34375 C 69.359375 -109.34375 76.503906 -108.207031 82.828125 -105.9375 C 89.160156 -103.664062 94.546875 -100.226562 98.984375 -95.625 C 103.429688 -91.019531 106.835938 -85.234375 109.203125 -78.265625 C 111.566406 -71.296875 112.75 -63.140625 112.75 -53.796875 Z M 40.28125 -53.796875 C 40.28125 -46.722656 40.648438 -40.492188 41.390625 -35.109375 C 42.140625 -29.734375 43.335938 -25.226562 44.984375 -21.59375 C 46.640625 -17.96875 48.796875 -15.226562 51.453125 -13.375 C 54.117188 -11.53125 57.363281 -10.609375 61.1875 -10.609375 C 65.019531 -10.609375 68.25 -11.53125 70.875 -13.375 C 73.5 -15.226562 75.632812 -17.96875 77.28125 -21.59375 C 78.9375 -25.226562 80.117188 -29.734375 80.828125 -35.109375 C 81.546875 -40.492188 81.90625 -46.722656 81.90625 -53.796875 C 81.90625 -60.929688 81.53125 -67.171875 80.78125 -72.515625 C 80.039062 -77.867188 78.84375 -82.328125 77.1875 -85.890625 C 75.539062 -89.460938 73.382812 -92.140625 70.71875 -93.921875 C 68.0625 -95.703125 64.820312 -96.59375 61 -96.59375 C 57.164062 -96.59375 53.921875 -95.703125 51.265625 -93.921875 C 48.609375 -92.140625 46.46875 -89.460938 44.84375 -85.890625 C 43.226562 -82.328125 42.0625 -77.867188 41.34375 -72.515625 C 40.632812 -67.171875 40.28125 -60.929688 40.28125 -53.796875 Z M 40.28125 -53.796875 "/></g></g></g><g fill="#232b2b" fill-opacity="1"><g transform="translate(334.66861, 364.294657)"><g><path d="M 5.734375 -10.609375 C 7.234375 -10.609375 8.804688 -10.753906 10.453125 -11.046875 C 12.109375 -11.335938 13.632812 -11.9375 15.03125 -12.84375 C 16.425781 -13.75 17.59375 -15.046875 18.53125 -16.734375 C 19.46875 -18.421875 19.9375 -20.691406 19.9375 -23.546875 L 19.9375 -128.703125 C 19.9375 -131.359375 19.46875 -133.476562 18.53125 -135.0625 C 17.59375 -136.65625 16.410156 -137.890625 14.984375 -138.765625 C 13.554688 -139.648438 12.015625 -140.21875 10.359375 -140.46875 C 8.703125 -140.726562 7.160156 -140.859375 5.734375 -140.859375 L 3.40625 -140.859375 L 3.40625 -151.375 L 50.203125 -151.375 L 50.203125 -23.546875 C 50.203125 -20.691406 50.671875 -18.421875 51.609375 -16.734375 C 52.546875 -15.046875 53.710938 -13.75 55.109375 -12.84375 C 56.503906 -11.9375 58.046875 -11.335938 59.734375 -11.046875 C 61.421875 -10.753906 62.976562 -10.609375 64.40625 -10.609375 L 66.734375 -10.609375 L 66.734375 0 L 3.40625 0 L 3.40625 -10.609375 Z M 5.734375 -10.609375 "/></g></g></g><g fill="#232b2b" fill-opacity="1"><g transform="translate(404.803836, 364.294657)"><g><path d="M 59.140625 -96.40625 C 53.566406 -96.40625 49.140625 -93.648438 45.859375 -88.140625 C 42.585938 -82.628906 40.789062 -74.554688 40.46875 -63.921875 L 74.90625 -63.921875 C 74.90625 -68.972656 74.613281 -73.507812 74.03125 -77.53125 C 73.445312 -81.550781 72.519531 -84.957031 71.25 -87.75 C 69.988281 -90.539062 68.367188 -92.679688 66.390625 -94.171875 C 64.410156 -95.660156 61.992188 -96.40625 59.140625 -96.40625 Z M 61 1.953125 C 52.5625 1.953125 45.113281 0.71875 38.65625 -1.75 C 32.207031 -4.21875 26.8125 -7.785156 22.46875 -12.453125 C 18.125 -17.117188 14.847656 -22.835938 12.640625 -29.609375 C 10.441406 -36.390625 9.34375 -44.128906 9.34375 -52.828125 C 9.34375 -62.160156 10.441406 -70.363281 12.640625 -77.4375 C 14.847656 -84.507812 18.054688 -90.410156 22.265625 -95.140625 C 26.484375 -99.878906 31.65625 -103.429688 37.78125 -105.796875 C 43.914062 -108.160156 50.910156 -109.34375 58.765625 -109.34375 C 65.960938 -109.34375 72.445312 -108.320312 78.21875 -106.28125 C 83.988281 -104.238281 88.882812 -101.207031 92.90625 -97.1875 C 96.925781 -93.164062 100.003906 -88.171875 102.140625 -82.203125 C 104.285156 -76.234375 105.359375 -69.296875 105.359375 -61.390625 L 105.359375 -51.171875 L 40.078125 -51.171875 C 40.273438 -44.492188 41.003906 -38.753906 42.265625 -33.953125 C 43.535156 -29.148438 45.285156 -25.191406 47.515625 -22.078125 C 49.753906 -18.960938 52.476562 -16.660156 55.6875 -15.171875 C 58.90625 -13.679688 62.585938 -12.9375 66.734375 -12.9375 C 70.171875 -12.9375 73.347656 -13.34375 76.265625 -14.15625 C 79.179688 -14.96875 81.820312 -16.101562 84.1875 -17.5625 C 86.5625 -19.019531 88.640625 -20.738281 90.421875 -22.71875 C 92.203125 -24.695312 93.675781 -26.820312 94.84375 -29.09375 C 98.414062 -27.144531 100.203125 -23.898438 100.203125 -19.359375 C 100.203125 -16.503906 99.421875 -13.796875 97.859375 -11.234375 C 96.304688 -8.671875 93.90625 -6.414062 90.65625 -4.46875 C 87.414062 -2.53125 83.347656 -0.976562 78.453125 0.1875 C 73.554688 1.363281 67.738281 1.953125 61 1.953125 Z M 61 1.953125 "/></g></g></g><g fill="#232b2b" fill-opacity="1"><g transform="translate(518.518244, 364.294657)"><g><path d="M 62.546875 -14.109375 C 65.140625 -14.109375 67.617188 -14.285156 69.984375 -14.640625 C 72.359375 -14.992188 74.582031 -15.429688 76.65625 -15.953125 L 76.65625 -3.015625 C 75.625 -2.492188 74.210938 -1.941406 72.421875 -1.359375 C 70.640625 -0.773438 68.566406 -0.242188 66.203125 0.234375 C 63.835938 0.722656 61.160156 1.128906 58.171875 1.453125 C 55.191406 1.785156 51.953125 1.953125 48.453125 1.953125 C 43.972656 1.953125 39.914062 1.414062 36.28125 0.34375 C 32.65625 -0.726562 29.578125 -2.507812 27.046875 -5 C 24.515625 -7.5 22.566406 -10.742188 21.203125 -14.734375 C 19.847656 -18.722656 19.171875 -23.640625 19.171875 -29.484375 L 19.171875 -93.203125 L 4.1875 -93.203125 L 4.1875 -103.40625 C 8.46875 -103.40625 12.289062 -104.25 15.65625 -105.9375 C 19.03125 -107.625 21.722656 -109.570312 23.734375 -111.78125 C 27.816406 -116.0625 30.863281 -122.644531 32.875 -131.53125 L 49.421875 -131.53125 L 49.421875 -106.8125 L 74.90625 -106.8125 L 74.90625 -93.203125 L 49.421875 -93.203125 L 49.421875 -31.515625 C 49.421875 -25.484375 50.441406 -21.070312 52.484375 -18.28125 C 54.523438 -15.5 57.878906 -14.109375 62.546875 -14.109375 Z M 62.546875 -14.109375 "/></g></g></g><g fill="#8e43ed" fill-opacity="1"><g transform="translate(599.157723, 364.294657)"><g><path d="M 88.8125 0 L 88.8125 -10.609375 L 97.375 -10.609375 C 98.800781 -10.609375 100.128906 -10.753906 101.359375 -11.046875 C 102.597656 -11.335938 103.6875 -11.9375 104.625 -12.84375 C 105.5625 -13.75 106.289062 -15.046875 106.8125 -16.734375 C 107.332031 -18.421875 107.59375 -20.691406 107.59375 -23.546875 L 107.59375 -68.09375 L 55.546875 -68.09375 L 55.546875 -23.546875 C 55.546875 -20.691406 55.820312 -18.421875 56.375 -16.734375 C 56.925781 -15.046875 57.65625 -13.75 58.5625 -12.84375 C 59.46875 -11.9375 60.535156 -11.335938 61.765625 -11.046875 C 63.003906 -10.753906 64.335938 -10.609375 65.765625 -10.609375 L 74.328125 -10.609375 L 74.328125 0 L 5.546875 0 L 5.546875 -10.609375 L 13.90625 -10.609375 C 15.332031 -10.609375 16.660156 -10.753906 17.890625 -11.046875 C 19.128906 -11.335938 20.21875 -11.9375 21.15625 -12.84375 C 22.09375 -13.75 22.820312 -15.046875 23.34375 -16.734375 C 23.863281 -18.421875 24.125 -20.691406 24.125 -23.546875 L 24.125 -119.46875 C 24.125 -122.125 23.847656 -124.242188 23.296875 -125.828125 C 22.742188 -127.421875 22 -128.640625 21.0625 -129.484375 C 20.125 -130.328125 19.035156 -130.894531 17.796875 -131.1875 C 16.566406 -131.476562 15.269531 -131.625 13.90625 -131.625 L 5.546875 -131.625 L 5.546875 -142.234375 L 74.328125 -142.234375 L 74.328125 -131.625 L 65.765625 -131.625 C 64.335938 -131.625 63.003906 -131.476562 61.765625 -131.1875 C 60.535156 -130.894531 59.46875 -130.296875 58.5625 -129.390625 C 57.65625 -128.484375 56.925781 -127.1875 56.375 -125.5 C 55.820312 -123.8125 55.546875 -121.539062 55.546875 -118.6875 L 55.546875 -80.265625 L 107.59375 -80.265625 L 107.59375 -118.6875 C 107.59375 -121.539062 107.332031 -123.8125 106.8125 -125.5 C 106.289062 -127.1875 105.5625 -128.484375 104.625 -129.390625 C 103.6875 -130.296875 102.597656 -130.894531 101.359375 -131.1875 C 100.128906 -131.476562 98.800781 -131.625 97.375 -131.625 L 88.8125 -131.625 L 88.8125 -142.234375 L 157.59375 -142.234375 L 157.59375 -131.625 L 149.234375 -131.625 C 147.867188 -131.625 146.566406 -131.476562 145.328125 -131.1875 C 144.097656 -130.894531 143.015625 -130.296875 142.078125 -129.390625 C 141.140625 -128.484375 140.410156 -127.1875 139.890625 -125.5 C 139.367188 -123.8125 139.109375 -121.539062 139.109375 -118.6875 L 139.109375 -22.46875 C 139.109375 -19.875 139.382812 -17.78125 139.9375 -16.1875 C 140.488281 -14.601562 141.234375 -13.40625 142.171875 -12.59375 C 143.117188 -11.78125 144.191406 -11.242188 145.390625 -10.984375 C 146.585938 -10.734375 147.867188 -10.609375 149.234375 -10.609375 L 157.59375 -10.609375 L 157.59375 0 Z M 88.8125 0 "/></g></g></g><g fill="#8e43ed" fill-opacity="1"><g transform="translate(762.287768, 364.294657)"><g><path d="M 88.234375 0 L 83.859375 -14.109375 L 82.890625 -14.109375 C 80.878906 -10.671875 78.703125 -7.894531 76.359375 -5.78125 C 74.023438 -3.675781 71.53125 -2.054688 68.875 -0.921875 C 66.21875 0.210938 63.410156 0.972656 60.453125 1.359375 C 57.503906 1.753906 54.472656 1.953125 51.359375 1.953125 C 40.984375 1.953125 33.023438 -1.253906 27.484375 -7.671875 C 21.941406 -14.097656 19.171875 -24.023438 19.171875 -37.453125 L 19.171875 -82.109375 C 19.171875 -85.023438 18.910156 -87.390625 18.390625 -89.203125 C 17.867188 -91.023438 17.054688 -92.453125 15.953125 -93.484375 C 14.847656 -94.523438 13.4375 -95.238281 11.71875 -95.625 C 10 -96.019531 7.941406 -96.21875 5.546875 -96.21875 L 5.15625 -96.21875 L 5.15625 -106.8125 L 49.421875 -106.8125 L 49.421875 -43 C 49.421875 -38.71875 49.660156 -34.859375 50.140625 -31.421875 C 50.628906 -27.984375 51.457031 -25.046875 52.625 -22.609375 C 53.789062 -20.179688 55.347656 -18.300781 57.296875 -16.96875 C 59.242188 -15.644531 61.675781 -14.984375 64.59375 -14.984375 C 67.769531 -14.984375 70.507812 -15.679688 72.8125 -17.078125 C 75.113281 -18.472656 76.992188 -20.484375 78.453125 -23.109375 C 79.910156 -25.734375 80.976562 -28.910156 81.65625 -32.640625 C 82.34375 -36.367188 82.6875 -40.566406 82.6875 -45.234375 L 82.6875 -83.46875 C 82.6875 -86.382812 82.296875 -88.6875 81.515625 -90.375 C 80.742188 -92.0625 79.707031 -93.34375 78.40625 -94.21875 C 77.113281 -95.09375 75.585938 -95.644531 73.828125 -95.875 C 72.078125 -96.101562 70.234375 -96.21875 68.296875 -96.21875 L 67.703125 -96.21875 L 67.703125 -106.8125 L 112.9375 -106.8125 L 112.9375 -23.15625 C 112.9375 -20.238281 113.273438 -17.953125 113.953125 -16.296875 C 114.640625 -14.640625 115.566406 -13.390625 116.734375 -12.546875 C 117.898438 -11.703125 119.296875 -11.164062 120.921875 -10.9375 C 122.546875 -10.71875 124.328125 -10.609375 126.265625 -10.609375 L 127.921875 -10.609375 L 127.921875 0 Z M 88.234375 0 "/></g></g></g><g fill="#8e43ed" fill-opacity="1"><g transform="translate(895.165304, 364.294657)"><g><path d="M 119.953125 -53.796875 C 119.953125 -44.128906 119.054688 -35.796875 117.265625 -28.796875 C 115.484375 -21.796875 112.875 -16.007812 109.4375 -11.4375 C 106 -6.863281 101.734375 -3.488281 96.640625 -1.3125 C 91.554688 0.863281 85.707031 1.953125 79.09375 1.953125 C 75.257812 1.953125 71.785156 1.53125 68.671875 0.6875 C 65.566406 -0.15625 62.765625 -1.351562 60.265625 -2.90625 C 57.765625 -4.46875 55.554688 -6.316406 53.640625 -8.453125 C 51.734375 -10.597656 50.066406 -12.96875 48.640625 -15.5625 L 46.796875 -15.5625 L 41.25 0 L 3.40625 0 L 3.40625 -10.609375 L 4.765625 -10.609375 C 6.648438 -10.609375 8.5 -10.769531 10.3125 -11.09375 C 12.125 -11.414062 13.742188 -12.0625 15.171875 -13.03125 C 16.597656 -14.007812 17.75 -15.40625 18.625 -17.21875 C 19.5 -19.03125 19.9375 -21.460938 19.9375 -24.515625 L 19.9375 -127.53125 C 19.9375 -130.382812 19.515625 -132.671875 18.671875 -134.390625 C 17.828125 -136.109375 16.691406 -137.453125 15.265625 -138.421875 C 13.847656 -139.398438 12.179688 -140.050781 10.265625 -140.375 C 8.347656 -140.695312 6.320312 -140.859375 4.1875 -140.859375 L 3.40625 -140.859375 L 3.40625 -151.375 L 50.203125 -151.375 L 50.203125 -117.328125 C 50.203125 -115.242188 50.117188 -112.804688 49.953125 -110.015625 C 49.796875 -107.234375 49.617188 -104.609375 49.421875 -102.140625 C 49.160156 -99.222656 48.898438 -96.242188 48.640625 -93.203125 L 50 -93.203125 C 52.851562 -98.128906 56.660156 -102.019531 61.421875 -104.875 C 66.191406 -107.726562 72.34375 -109.15625 79.875 -109.15625 C 86.351562 -109.15625 92.070312 -108.066406 97.03125 -105.890625 C 102 -103.722656 106.1875 -100.382812 109.59375 -95.875 C 113 -91.363281 115.578125 -85.617188 117.328125 -78.640625 C 119.078125 -71.671875 119.953125 -63.390625 119.953125 -53.796875 Z M 70.53125 -94.46875 C 66.570312 -94.46875 63.296875 -93.640625 60.703125 -91.984375 C 58.109375 -90.328125 56.03125 -87.8125 54.46875 -84.4375 C 52.914062 -81.0625 51.816406 -76.828125 51.171875 -71.734375 C 50.523438 -66.648438 50.203125 -60.671875 50.203125 -53.796875 C 50.203125 -47.242188 50.523438 -41.421875 51.171875 -36.328125 C 51.816406 -31.242188 52.914062 -26.96875 54.46875 -23.5 C 56.03125 -20.03125 58.140625 -17.398438 60.796875 -15.609375 C 63.460938 -13.828125 66.769531 -12.9375 70.71875 -12.9375 C 77.269531 -12.9375 82.003906 -16.46875 84.921875 -23.53125 C 87.847656 -30.601562 89.3125 -40.753906 89.3125 -53.984375 C 89.3125 -67.546875 87.847656 -77.679688 84.921875 -84.390625 C 82.003906 -91.109375 77.207031 -94.46875 70.53125 -94.46875 Z M 70.53125 -94.46875 "/></g></g></g></svg>