<svg xmlns="http://www.w3.org/2000/svg" xmlns:xlink="http://www.w3.org/1999/xlink" width="1366" zoomAndPan="magnify" viewBox="0 0 1024.5 576" height="768" preserveAspectRatio="xMidYMid meet" version="1.0"><defs><g/><clipPath id="68573d75f0"><path d="M 540.296875 193.125 L 852.09375 193.125 L 852.09375 565 L 540.296875 565 Z M 540.296875 193.125 " clip-rule="nonzero"/></clipPath><clipPath id="5c24ea74a5"><path d="M 562.796875 193.125 L 829.59375 193.125 C 835.5625 193.125 841.285156 195.492188 845.503906 199.714844 C 849.726562 203.933594 852.09375 209.65625 852.09375 215.625 L 852.09375 541.917969 C 852.09375 547.886719 849.726562 553.609375 845.503906 557.828125 C 841.285156 562.046875 835.5625 564.417969 829.59375 564.417969 L 562.796875 564.417969 C 556.832031 564.417969 551.105469 562.046875 546.886719 557.828125 C 542.667969 553.609375 540.296875 547.886719 540.296875 541.917969 L 540.296875 215.625 C 540.296875 209.65625 542.667969 203.933594 546.886719 199.714844 C 551.105469 195.492188 556.832031 193.125 562.796875 193.125 " clip-rule="nonzero"/></clipPath></defs><g clip-path="url(#68573d75f0)"><g clip-path="url(#5c24ea74a5)"><path fill="#8e43ed" d="M 540.296875 193.125 L 852.09375 193.125 L 852.09375 564.195312 L 540.296875 564.195312 Z M 540.296875 193.125 " fill-opacity="1" fill-rule="nonzero"/></g></g><g fill="#232b2b" fill-opacity="1"><g transform="translate(172.404572, 475.685381)"><g><path d="M 291.625 -341.375 L 358.34375 -157.015625 C 361.175781 -149.472656 363.8125 -141.8125 366.25 -134.03125 C 368.6875 -126.25 370.925781 -118.820312 372.96875 -111.75 C 375.007812 -104.675781 376.816406 -98.148438 378.390625 -92.171875 C 379.960938 -86.203125 381.140625 -81.097656 381.921875 -76.859375 C 383.179688 -82.671875 384.515625 -89.113281 385.921875 -96.1875 C 387.335938 -103.257812 388.867188 -110.6875 390.515625 -118.46875 C 392.171875 -126.25 393.898438 -134.222656 395.703125 -142.390625 C 397.515625 -150.566406 399.363281 -158.503906 401.25 -166.203125 L 426.71875 -270.40625 C 427.1875 -272.289062 427.695312 -274.488281 428.25 -277 C 428.800781 -279.519531 429.3125 -282 429.78125 -284.4375 C 430.25 -286.875 430.601562 -289.148438 430.84375 -291.265625 C 431.082031 -293.390625 431.203125 -295.082031 431.203125 -296.34375 C 431.203125 -304.675781 428.722656 -310.570312 423.765625 -314.03125 C 418.816406 -317.488281 411 -319.21875 400.3125 -319.21875 L 389.234375 -319.21875 L 389.234375 -344.671875 L 515.109375 -344.671875 L 515.109375 -319.21875 L 505.9375 -319.21875 C 501.21875 -319.21875 497.050781 -318.742188 493.4375 -317.796875 C 489.820312 -316.859375 486.597656 -315.015625 483.765625 -312.265625 C 480.941406 -309.515625 478.390625 -305.703125 476.109375 -300.828125 C 473.828125 -295.953125 471.585938 -289.507812 469.390625 -281.5 L 394.421875 0 L 339.484375 0 L 258.390625 -226.5625 L 188.84375 0 L 128.953125 0 L 40.546875 -293.515625 C 39.128906 -298.546875 37.398438 -302.710938 35.359375 -306.015625 C 33.316406 -309.316406 30.921875 -311.945312 28.171875 -313.90625 C 25.421875 -315.875 22.273438 -317.25 18.734375 -318.03125 C 15.203125 -318.820312 11.078125 -319.21875 6.359375 -319.21875 L 0 -319.21875 L 0 -344.671875 L 161.25 -344.671875 L 161.25 -319.21875 L 150.171875 -319.21875 C 140.429688 -319.21875 133.160156 -317.328125 128.359375 -313.546875 C 123.566406 -309.773438 121.171875 -303.882812 121.171875 -295.875 C 121.171875 -293.195312 121.679688 -289.304688 122.703125 -284.203125 C 123.734375 -279.097656 124.875 -274.34375 126.125 -269.9375 L 158.421875 -158.421875 C 160.148438 -152.296875 162 -145.65625 163.96875 -138.5 C 165.9375 -131.351562 167.785156 -124.125 169.515625 -116.8125 C 171.242188 -109.507812 172.8125 -102.476562 174.21875 -95.71875 C 175.632812 -88.957031 176.65625 -82.984375 177.28125 -77.796875 C 179.488281 -88.171875 181.890625 -97.875 184.484375 -106.90625 C 187.078125 -115.945312 189.785156 -125.179688 192.609375 -134.609375 L 256.265625 -341.375 Z M 291.625 -341.375 "/></g></g></g></svg>