<svg width="206" height="25" viewBox="0 0 206 25" fill="none" xmlns="http://www.w3.org/2000/svg">
<path d="M32.3455 0.688L22.8415 24H18.1055L15.9615 9.28C15.9188 9.03467 15.8762 8.77333 15.8335 8.496C15.8015 8.21867 15.7695 7.92533 15.7375 7.616C15.6202 7.92533 15.5082 8.21867 15.4015 8.496C15.3055 8.77333 15.2042 9.03467 15.0975 9.28L9.4015 24H4.6975L0.921502 0.688H5.0175C5.4655 0.688 5.82284 0.794666 6.0895 1.008C6.36684 1.21067 6.53217 1.48267 6.5855 1.824L8.2175 14.384C8.2495 14.7787 8.2815 15.2 8.3135 15.648C8.3455 16.096 8.3775 16.5653 8.4095 17.056C8.5695 16.5653 8.7295 16.096 8.8895 15.648C9.06017 15.1893 9.23084 14.768 9.4015 14.384L14.1695 1.824C14.2335 1.68533 14.3242 1.54667 14.4415 1.408C14.5588 1.26933 14.6975 1.14667 14.8575 1.04C15.0175 0.933332 15.1935 0.847999 15.3855 0.783998C15.5775 0.719999 15.7802 0.688 15.9935 0.688H17.2095C17.6575 0.688 18.0095 0.794666 18.2655 1.008C18.5322 1.22133 18.7135 1.49333 18.8095 1.824L20.6015 14.384C20.6655 14.7573 20.7242 15.168 20.7775 15.616C20.8308 16.0533 20.8788 16.512 20.9215 16.992C21.0708 16.512 21.2148 16.0533 21.3535 15.616C21.4922 15.1787 21.6255 14.768 21.7535 14.384L26.3615 1.824C26.4042 1.67467 26.4842 1.53067 26.6015 1.392C26.7295 1.25333 26.8735 1.136 27.0335 1.04C27.2042 0.933332 27.3908 0.847999 27.5935 0.783998C27.7962 0.719999 28.0042 0.688 28.2175 0.688H32.3455ZM45.9575 20.576C46.5122 20.576 47.0082 20.4107 47.4455 20.08C47.8828 19.7387 48.2508 19.28 48.5495 18.704C48.8588 18.1173 49.0935 17.44 49.2535 16.672C49.4242 15.8933 49.5095 15.0667 49.5095 14.192C49.5095 12.9867 49.3442 12.128 49.0135 11.616C48.6935 11.0933 48.1655 10.832 47.4295 10.832C46.8748 10.832 46.3788 11.0027 45.9415 11.344C45.5042 11.6747 45.1308 12.128 44.8215 12.704C44.5228 13.28 44.2882 13.9573 44.1175 14.736C43.9575 15.5147 43.8775 16.3413 43.8775 17.216C43.8775 18.4 44.0375 19.2587 44.3575 19.792C44.6882 20.3147 45.2215 20.576 45.9575 20.576ZM45.5095 24.256C44.5815 24.256 43.7122 24.1013 42.9015 23.792C42.1015 23.4827 41.4028 23.0347 40.8055 22.448C40.2188 21.8507 39.7548 21.12 39.4135 20.256C39.0828 19.3813 38.9175 18.3787 38.9175 17.248C38.9175 15.776 39.1575 14.4267 39.6375 13.2C40.1282 11.9627 40.7842 10.896 41.6055 10C42.4268 9.104 43.3762 8.40533 44.4535 7.904C45.5415 7.40267 46.6828 7.152 47.8775 7.152C48.8055 7.152 49.6695 7.30667 50.4695 7.616C51.2695 7.92533 51.9628 8.37867 52.5495 8.976C53.1468 9.56267 53.6162 10.2933 53.9575 11.168C54.2988 12.032 54.4695 13.0293 54.4695 14.16C54.4695 15.6107 54.2242 16.9547 53.7335 18.192C53.2535 19.4187 52.6028 20.4853 51.7815 21.392C50.9602 22.288 50.0055 22.992 48.9175 23.504C47.8402 24.0053 46.7042 24.256 45.5095 24.256ZM65.2805 24L68.1925 0.0479984H73.0885L70.1765 24H65.2805ZM91.7438 10.528C90.9224 10.528 90.2024 10.8587 89.5838 11.52C88.9651 12.1707 88.5064 13.0667 88.2078 14.208C89.2318 14.048 90.0638 13.8773 90.7038 13.696C91.3438 13.5147 91.8398 13.3227 92.1918 13.12C92.5438 12.9067 92.7784 12.6827 92.8958 12.448C93.0238 12.2133 93.0878 11.9573 93.0878 11.68C93.0878 11.4027 92.9811 11.1413 92.7678 10.896C92.5544 10.6507 92.2131 10.528 91.7438 10.528ZM97.2158 20.928C96.6291 21.504 96.0531 22.0053 95.4878 22.432C94.9331 22.848 94.3571 23.1947 93.7598 23.472C93.1731 23.7387 92.5438 23.936 91.8718 24.064C91.2104 24.192 90.4851 24.256 89.6958 24.256C88.7144 24.256 87.8131 24.0907 86.9918 23.76C86.1704 23.4187 85.4611 22.944 84.8638 22.336C84.2771 21.7173 83.8184 20.976 83.4878 20.112C83.1678 19.248 83.0078 18.288 83.0078 17.232C83.0078 16.3467 83.1038 15.4827 83.2958 14.64C83.4984 13.7973 83.7811 13.008 84.1438 12.272C84.5171 11.5253 84.9704 10.8427 85.5038 10.224C86.0371 9.59467 86.6344 9.056 87.2958 8.608C87.9678 8.16 88.6984 7.81333 89.4878 7.568C90.2878 7.312 91.1358 7.184 92.0318 7.184C92.9171 7.184 93.7011 7.312 94.3838 7.568C95.0771 7.824 95.6584 8.16 96.1278 8.576C96.5971 8.98133 96.9544 9.44 97.1998 9.952C97.4451 10.464 97.5678 10.976 97.5678 11.488C97.5678 12.2453 97.4184 12.9387 97.1198 13.568C96.8211 14.1867 96.2984 14.7413 95.5518 15.232C94.8158 15.7227 93.8184 16.1387 92.5598 16.48C91.3118 16.8213 89.7384 17.088 87.8398 17.28C87.8611 18.4107 88.1064 19.2373 88.5758 19.76C89.0558 20.2827 89.7598 20.544 90.6878 20.544C91.1251 20.544 91.5038 20.5067 91.8238 20.432C92.1438 20.3573 92.4211 20.2613 92.6558 20.144C92.9011 20.0267 93.1198 19.904 93.3118 19.776C93.5038 19.648 93.6851 19.5253 93.8558 19.408C94.0371 19.2907 94.2238 19.1947 94.4158 19.12C94.6078 19.0453 94.8264 19.008 95.0718 19.008C95.2318 19.008 95.3864 19.0507 95.5358 19.136C95.6851 19.2107 95.8184 19.312 95.9358 19.44L97.2158 20.928ZM109.625 20.416C109.625 20.3413 109.625 20.2507 109.625 20.144C109.625 20.0373 109.63 19.888 109.641 19.696C109.662 19.4933 109.689 19.232 109.721 18.912C109.763 18.5813 109.817 18.1493 109.881 17.616L110.729 10.832H109.401C109.177 10.832 108.99 10.752 108.841 10.592C108.691 10.4213 108.643 10.176 108.697 9.856L108.921 7.92L111.433 7.408L112.825 3.36C113.006 2.848 113.369 2.592 113.913 2.592H116.601L115.993 7.44H119.705L119.289 10.832H115.577L114.777 17.344C114.723 17.7813 114.681 18.128 114.649 18.384C114.617 18.6293 114.59 18.8213 114.569 18.96C114.558 19.088 114.553 19.1787 114.553 19.232C114.553 19.2747 114.553 19.3013 114.553 19.312C114.553 19.6213 114.622 19.8827 114.761 20.096C114.91 20.2987 115.139 20.4 115.449 20.4C115.619 20.4 115.758 20.384 115.865 20.352C115.982 20.3093 116.083 20.2667 116.169 20.224C116.254 20.1707 116.334 20.128 116.409 20.096C116.483 20.0533 116.569 20.032 116.665 20.032C116.814 20.032 116.921 20.0693 116.985 20.144C117.059 20.208 117.134 20.3147 117.209 20.464L118.297 22.816C117.635 23.296 116.926 23.6587 116.169 23.904C115.411 24.1387 114.649 24.256 113.881 24.256C113.241 24.256 112.665 24.1707 112.153 24C111.641 23.8187 111.198 23.5627 110.825 23.232C110.462 22.8907 110.174 22.4853 109.961 22.016C109.758 21.5467 109.646 21.0133 109.625 20.416Z" fill="black"/>
<path d="M152.104 0.688L149.224 24H143.976L145.208 14.08H136.792L135.56 24H130.312L133.192 0.688H138.44L137.224 10.528H145.64L146.856 0.688H152.104ZM178.755 7.408L176.739 24H174.211C173.038 24 172.451 23.456 172.451 22.368V21.312C171.651 22.3147 170.792 23.056 169.875 23.536C168.958 24.016 168.003 24.256 167.011 24.256C166.318 24.256 165.688 24.1173 165.123 23.84C164.558 23.5627 164.083 23.1573 163.699 22.624C163.326 22.08 163.059 21.4187 162.899 20.64C162.739 19.8507 162.723 18.9493 162.851 17.936L164.099 7.408H169.059L167.811 17.936C167.758 18.384 167.736 18.7627 167.747 19.072C167.768 19.3813 167.827 19.632 167.923 19.824C168.019 20.0053 168.147 20.1387 168.307 20.224C168.478 20.2987 168.686 20.336 168.931 20.336C169.272 20.336 169.624 20.24 169.987 20.048C170.35 19.8453 170.702 19.568 171.043 19.216C171.384 18.8533 171.699 18.416 171.987 17.904C172.286 17.392 172.531 16.8213 172.723 16.192L173.795 7.408H178.755ZM194.796 19.904C195.105 20.16 195.452 20.3413 195.836 20.448C196.22 20.5547 196.583 20.608 196.924 20.608C197.5 20.608 198.028 20.416 198.508 20.032C198.999 19.648 199.42 19.1467 199.772 18.528C200.124 17.8987 200.396 17.184 200.588 16.384C200.791 15.584 200.892 14.768 200.892 13.936C200.892 12.88 200.737 12.112 200.428 11.632C200.119 11.152 199.708 10.912 199.196 10.912C198.844 10.912 198.476 11.0507 198.092 11.328C197.719 11.5947 197.356 11.9627 197.004 12.432C196.652 12.8907 196.321 13.4347 196.012 14.064C195.713 14.6827 195.463 15.344 195.26 16.048L194.796 19.904ZM196.012 10.016C196.748 9.12 197.548 8.42133 198.412 7.92C199.287 7.408 200.209 7.152 201.18 7.152C201.863 7.152 202.487 7.27467 203.052 7.52C203.617 7.75467 204.103 8.128 204.508 8.64C204.924 9.152 205.244 9.808 205.468 10.608C205.703 11.3973 205.82 12.3413 205.82 13.44C205.82 14.8907 205.596 16.272 205.148 17.584C204.711 18.8853 204.119 20.032 203.372 21.024C202.625 22.016 201.761 22.8053 200.78 23.392C199.809 23.968 198.791 24.256 197.724 24.256C196.903 24.256 196.183 24.1013 195.564 23.792C194.945 23.472 194.412 23.056 193.964 22.544L193.916 22.704C193.767 23.152 193.575 23.4827 193.34 23.696C193.105 23.8987 192.721 24 192.188 24H189.468L192.38 0.0479984H197.244L196.012 10.016Z" fill="white"/>
</svg>
